HIERARCHY
ROOT Hips
{
	OFFSET 0.000000 0.000000 0.000000 
	CHANNELS 6 Xposition Yposition Zposition Zrotation Yrotation Xrotation
	JOINT LeftUpLeg
	{
		OFFSET 1.363060 -1.794630 0.839290 
		CHANNELS 3 Zrotation Yrotation Xrotation
		JOINT LeftLeg
		{
			OFFSET 2.448110 -6.726130 0.000000 
			CHANNELS 3 Zrotation Yrotation Xrotation
			JOINT LeftFoot
			{
				OFFSET 2.562200 -7.039590 0.000000 
				CHANNELS 3 Zrotation Yrotation Xrotation
				JOINT LeftToeBase
				{
					OFFSET 0.157640 -0.433110 2.322550 
					CHANNELS 3 Zrotation Yrotation Xrotation
					End Site
					{
						OFFSET 0.000000 0.000000 0.000000 
					}
				}
			}
		}
	}
	JOINT RightUpLeg
	{
		OFFSET -1.305520 -1.794630 0.839290 
		CHANNELS 3 Zrotation Yrotation Xrotation
		JOINT RightLeg
		{
			OFFSET -2.542530 -6.985550 0.000000 
			CHANNELS 3 Zrotation Yrotation Xrotation
			JOINT RightFoot
			{
				OFFSET -2.568260 -7.056230 0.000000 
				CHANNELS 3 Zrotation Yrotation Xrotation
				JOINT RightToeBase
				{
					OFFSET -0.164730 -0.452590 2.363150 
					CHANNELS 3 Zrotation Yrotation Xrotation
					End Site
					{
						OFFSET 0.000000 0.000000 0.000000 
					}
				}
			}
		}
	}
	JOINT Spine
	{
		OFFSET 0.028270 2.035590 -0.193380 
		CHANNELS 3 Zrotation Yrotation Xrotation
		JOINT Spine1
		{
			OFFSET 0.056720 2.048850 -0.042750 
			CHANNELS 3 Zrotation Yrotation Xrotation
			JOINT Neck1
			{
				OFFSET -0.054170 1.746240 0.172020 
				CHANNELS 3 Zrotation Yrotation Xrotation
				JOINT Head
				{
					OFFSET 0.104070 1.761360 -0.123970 
					CHANNELS 3 Zrotation Yrotation Xrotation
					End Site
					{
						OFFSET 0.000000 0.000000 0.000000 
					}
				}
			}
			JOINT LeftArm
			{
				OFFSET 3.362410 1.200890 -0.311210 
				CHANNELS 3 Zrotation Yrotation Xrotation
				JOINT LeftForeArm
				{
					OFFSET 4.983000 -0.000000 -0.000000 
					CHANNELS 3 Zrotation Yrotation Xrotation
					JOINT LeftHand
					{
						OFFSET 3.483560 -0.000000 -0.000000 
						CHANNELS 3 Zrotation Yrotation Xrotation
						JOINT LeftHandIndex1
						{
							OFFSET 0.715260 -0.000000 -0.000000 
							CHANNELS 3 Zrotation Yrotation Xrotation
							End Site
							{
								OFFSET 0.000000 0.000000 0.000000 
							}
						}
					}
				}
			}
			JOINT RightArm
			{
				OFFSET -3.136600 1.374050 -0.404650 
				CHANNELS 3 Zrotation Yrotation Xrotation
				JOINT RightForeArm
				{
					OFFSET -5.241900 -0.000000 -0.000000 
					CHANNELS 3 Zrotation Yrotation Xrotation
					JOINT RightHand
					{
						OFFSET -3.444170 -0.000000 -0.000000 
						CHANNELS 3 Zrotation Yrotation Xrotation
						JOINT RightHandIndex1
						{
							OFFSET -0.622530 -0.000000 -0.000000 
							CHANNELS 3 Zrotation Yrotation Xrotation
							End Site
							{
								OFFSET 0.000000 0.000000 0.000000 
							}
						}
					}
				}
			}
		}
	}
}
MOTION
Frames: 6
Frame Time: 0.041667
-0.623384 17.808256 10.551295 -5.264160 1.417481 8.359815 -14.591456 -5.714763 -6.013987 0.348152 6.010923 17.314880 0.136732 2.108097 -10.472037 0.055400 1.518900 4.177800 31.286264 0.677018 -1.127615 -0.415823 -2.578099 7.839783 0.690794 -9.368770 -10.126056 -0.302700 -3.537700 9.779500 1.659748 -1.776641 -3.190554 3.710219 -1.139490 0.468927 3.901094 -1.679531 14.891617 -0.134300 -0.478200 9.097200 -92.943221 4.570897 25.198016 14.707013 -24.126725 -2.653537 0.498522 0.223424 9.356428 -7.125000 0.000000 0.000000 86.725034 -2.096355 20.147194 -12.012067 21.657621 -2.189841 0.859675 0.624493 -12.521288 7.125000 0.000000 0.000000 
-0.630363 17.814527 10.541787 -5.063877 1.346627 8.404716 -14.798465 -5.610048 -6.121619 0.342197 5.997537 17.267733 0.123679 2.154066 -10.369604 0.057000 1.541000 4.238800 31.096901 0.783186 -1.260859 -0.424617 -2.614371 7.941767 0.682121 -9.352872 -10.267605 -0.343100 -3.763600 10.412700 1.652531 -1.790279 -3.185642 3.872740 -1.144757 0.483241 3.875639 -1.687649 14.919834 -0.150700 -0.483000 9.126000 -92.981115 4.485088 25.379760 14.655019 -24.063573 -2.639477 0.502828 0.221610 8.553197 -7.125000 0.000000 0.000000 86.690884 -2.181799 20.029521 -12.152906 21.924045 -2.277708 0.841508 0.613780 -11.990131 7.125000 0.000000 0.000000 
-0.631678 17.815538 10.530357 -5.193043 1.197701 8.380985 -14.671868 -5.543145 -6.154731 0.340745 5.998836 17.268564 0.093044 2.316666 -10.270417 0.057600 1.549100 4.261100 31.240537 0.963695 -1.274621 -0.425821 -2.635167 7.993440 0.688003 -9.390718 -10.239238 -0.351900 -3.811100 10.545800 1.675109 -1.761611 -3.132169 3.909684 -1.136536 0.587353 4.006913 -1.634865 14.881226 -0.067900 -0.456300 9.147000 -92.961662 4.245995 25.593723 14.604607 -23.992345 -2.616845 0.503665 0.223278 8.328624 -7.125000 0.000000 0.000000 86.723534 -2.004547 20.077211 -12.151828 21.928692 -2.299248 0.804443 0.638587 -12.295034 7.125000 0.000000 0.000000 
-0.636229 17.816348 10.525198 -5.138898 1.205539 8.397198 -14.709803 -5.593804 -6.188936 0.340931 6.000830 17.269682 0.083795 2.343964 -10.179950 0.053900 1.498100 4.120400 31.202825 0.977013 -1.340053 -0.429484 -2.654278 8.045622 0.686430 -9.389122 -10.264992 -0.358300 -3.845400 10.642000 1.671938 -1.766379 -3.122724 3.964447 -1.139412 0.616362 4.182712 -1.658491 14.841943 0.035700 -0.464600 9.107900 -92.854724 4.286297 25.624605 14.870709 -24.376881 -2.715945 0.488391 0.237970 8.968710 -7.125000 0.000000 0.000000 86.693958 -1.986644 20.024439 -12.143469 21.900892 -2.259899 0.851625 0.620165 -12.133634 7.125000 0.000000 0.000000 
-0.637241 17.817663 10.518522 -5.099646 1.115101 8.382615 -14.767510 -5.572626 -6.192377 0.342281 6.007314 17.285086 0.067955 2.415598 -10.093411 0.051700 1.467800 4.036900 31.152663 1.049758 -1.311805 -0.429293 -2.647128 8.024833 0.690301 -9.413612 -10.237767 -0.360700 -3.858100 10.677900 1.646520 -1.782972 -3.055539 3.910356 -1.155809 0.833661 4.295494 -1.646947 14.755615 0.082800 -0.450600 9.051700 -92.833313 4.051705 25.279794 14.745114 -24.203079 -2.664002 0.493535 0.233735 9.443851 -7.125000 0.000000 0.000000 86.804471 -1.802839 20.030703 -12.092789 21.831962 -2.237617 0.863384 0.609099 -12.004073 7.125000 0.000000 0.000000 
-0.641085 17.818269 10.504665 -5.178609 0.993520 8.425328 -14.666608 -5.546523 -6.275572 0.338981 5.998156 17.253159 0.044153 2.513155 -9.930995 0.050000 1.443400 3.969600 31.271119 1.249361 -1.431878 -0.435209 -2.689944 8.135307 0.692095 -9.428865 -10.225626 -0.361800 -3.864100 10.694600 1.651254 -1.736959 -3.021046 3.917014 -1.136534 0.875083 4.320743 -1.691038 14.788293 0.096700 -0.470300 9.108600 -92.736135 3.922361 25.513916 14.883761 -24.405988 -2.717502 0.489578 0.239158 9.245145 -7.125000 0.000000 0.000000 86.779558 -1.670480 20.415905 -12.189149 22.005607 -2.298700 0.836745 0.627347 -12.564905 7.125000 0.000000 0.000000 
